<svg width="328" height="26" viewBox="0 0 328 26" fill="none" xmlns="http://www.w3.org/2000/svg">
<path d="M0.263691 25.5V23.645H1.73369C2.06036 23.645 2.35202 23.5983 2.60869 23.505C2.88869 23.4117 3.11036 23.2133 3.27369 22.91C3.43702 22.6067 3.51869 22.1517 3.51869 21.545V4.5C3.51869 3.87 3.43702 3.40333 3.27369 3.1C3.11036 2.79666 2.88869 2.59833 2.60869 2.505C2.35202 2.41167 2.06036 2.365 1.73369 2.365H0.263691V0.509998H12.3387V2.365H10.8687C10.542 2.365 10.2387 2.42333 9.95869 2.54C9.67869 2.63333 9.45703 2.84333 9.29369 3.17C9.13036 3.47333 9.04869 3.96333 9.04869 4.64V12.795L14.4737 6.88C14.987 6.34333 15.3837 5.87667 15.6637 5.48C15.9437 5.06 16.142 4.68667 16.2587 4.36C16.3987 4.01 16.4687 3.67167 16.4687 3.345C16.4687 3.08833 16.3987 2.89 16.2587 2.75C16.142 2.58667 15.9437 2.48167 15.6637 2.435C15.3837 2.365 14.9987 2.33 14.5087 2.33V0.509998H23.9937V2.33C23.3637 2.33 22.7687 2.45833 22.2087 2.715C21.6487 2.97167 21.1004 3.33333 20.5637 3.8C20.0504 4.26667 19.5137 4.80333 18.9537 5.41L14.3337 10.485L20.8437 20.81C21.1937 21.3467 21.5204 21.8017 21.8237 22.175C22.1504 22.525 22.4654 22.8167 22.7687 23.05C23.0954 23.26 23.422 23.4117 23.7487 23.505C24.0987 23.5983 24.4604 23.645 24.8337 23.645H24.9737V25.5H23.0837C21.7537 25.5 20.657 25.4417 19.7937 25.325C18.9304 25.185 18.2187 24.9867 17.6587 24.73C17.122 24.45 16.6787 24.1117 16.3287 23.715C15.9787 23.3183 15.6404 22.84 15.3137 22.28L10.5887 14.23L9.04869 15.455V21.37C9.04869 22.0233 9.13036 22.5133 9.29369 22.84C9.45703 23.1667 9.67869 23.3883 9.95869 23.505C10.2387 23.5983 10.542 23.645 10.8687 23.645H12.3387V25.5H0.263691ZM25.9668 25.5V23.645H27.4368C27.7635 23.645 28.0551 23.5983 28.3118 23.505C28.5918 23.4117 28.8135 23.2133 28.9768 22.91C29.1401 22.6067 29.2218 22.1517 29.2218 21.545V4.64C29.2218 3.96333 29.1401 3.47333 28.9768 3.17C28.8368 2.84333 28.6268 2.63333 28.3468 2.54C28.0901 2.42333 27.7868 2.365 27.4368 2.365H25.9668V0.509998H45.3918L45.5318 6.95H43.0818L42.9068 5.305C42.8602 4.72167 42.7435 4.24333 42.5568 3.87C42.3935 3.47333 42.1602 3.17 41.8568 2.96C41.5535 2.75 41.1568 2.645 40.6668 2.645H34.7868V11.395H43.0818V13.495H34.7868V23.365H41.7868C42.2535 23.365 42.6385 23.2483 42.9418 23.015C43.2452 22.7817 43.4785 22.4667 43.6418 22.07C43.8285 21.6733 43.9568 21.2183 44.0268 20.705L44.3068 19.06H46.7218L46.4768 25.5H25.9668ZM48.833 25.5V23.645H50.303C50.6297 23.645 50.9214 23.5983 51.178 23.505C51.458 23.3883 51.6797 23.1667 51.843 22.84C52.0064 22.5133 52.088 22.0233 52.088 21.37V4.5C52.088 3.87 52.0064 3.40333 51.843 3.1C51.6797 2.79666 51.458 2.59833 51.178 2.505C50.9214 2.41167 50.6297 2.365 50.303 2.365H48.833V0.509998H56.603L68.958 17.975V4.5C68.958 3.87 68.8764 3.40333 68.713 3.1C68.5497 2.79666 68.328 2.59833 68.048 2.505C67.7914 2.41167 67.4997 2.365 67.173 2.365H65.703V0.509998H74.838V2.365H73.368C73.0414 2.365 72.738 2.42333 72.458 2.54C72.2014 2.63333 71.9914 2.84333 71.828 3.17C71.6647 3.47333 71.583 3.96333 71.583 4.64V25.5H68.363L54.713 6.215V21.37C54.713 22.0233 54.7947 22.5133 54.958 22.84C55.1214 23.1667 55.3314 23.3883 55.588 23.505C55.868 23.5983 56.1714 23.645 56.498 23.645H57.968V25.5H48.833ZM80.826 25.5V23.645H82.296C82.646 23.645 82.9494 23.5983 83.206 23.505C83.486 23.3883 83.696 23.1667 83.836 22.84C83.9994 22.5133 84.081 22.0233 84.081 21.37V2.645H81.281C80.581 2.645 80.0327 2.75 79.636 2.96C79.2394 3.14667 78.9477 3.42667 78.761 3.8C78.5744 4.17333 78.446 4.61667 78.376 5.13L78.131 7.3H75.786L75.961 0.509998H97.766L97.941 7.3H95.596L95.351 5.13C95.3044 4.61667 95.176 4.17333 94.966 3.8C94.7794 3.42667 94.4877 3.14667 94.091 2.96C93.6944 2.75 93.146 2.645 92.446 2.645H89.646V21.37C89.646 22.0233 89.716 22.5133 89.856 22.84C90.0194 23.1667 90.241 23.3883 90.521 23.505C90.801 23.5983 91.1044 23.645 91.431 23.645H92.901V25.5H80.826ZM111.847 25.85C109.817 25.85 108.079 25.5817 106.632 25.045C105.186 24.5083 104.077 23.6567 103.307 22.49C102.537 21.3233 102.152 19.7833 102.152 17.87V4.5C102.152 3.87 102.071 3.40333 101.907 3.1C101.744 2.79666 101.522 2.59833 101.242 2.505C100.986 2.41167 100.694 2.365 100.367 2.365H98.8622V0.509998H110.937V2.365H109.467C109.141 2.365 108.837 2.42333 108.557 2.54C108.301 2.63333 108.091 2.84333 107.927 3.17C107.764 3.47333 107.682 3.96333 107.682 4.64V18.15C107.682 19.4567 107.892 20.495 108.312 21.265C108.756 22.0117 109.362 22.5483 110.132 22.875C110.926 23.2017 111.847 23.365 112.897 23.365C113.947 23.365 114.846 23.19 115.592 22.84C116.362 22.4667 116.946 21.9067 117.342 21.16C117.762 20.39 117.972 19.41 117.972 18.22V4.5C117.972 3.87 117.891 3.40333 117.727 3.1C117.564 2.79666 117.342 2.59833 117.062 2.505C116.806 2.41167 116.514 2.365 116.187 2.365H114.717V0.509998H123.887V2.365H122.382C122.056 2.365 121.752 2.42333 121.472 2.54C121.216 2.63333 121.006 2.84333 120.842 3.17C120.679 3.47333 120.597 3.96333 120.597 4.64V18.29C120.597 19.8533 120.294 21.2067 119.687 22.35C119.081 23.47 118.136 24.3333 116.852 24.94C115.569 25.5467 113.901 25.85 111.847 25.85ZM138.485 25.85C135.778 25.85 133.526 25.3133 131.73 24.24C129.933 23.1667 128.591 21.6733 127.705 19.76C126.818 17.8233 126.375 15.56 126.375 12.97C126.375 10.45 126.83 8.23333 127.74 6.32C128.65 4.38333 130.003 2.87833 131.8 1.805C133.596 0.708332 135.813 0.159999 138.45 0.159999C140.246 0.159999 141.728 0.346666 142.895 0.72C144.085 1.07 144.971 1.54833 145.555 2.155C146.138 2.76167 146.43 3.45 146.43 4.22C146.43 5.08333 146.056 5.80667 145.31 6.39C144.563 6.97333 143.478 7.265 142.055 7.265C142.055 6.495 141.938 5.73667 141.705 4.99C141.471 4.24333 141.075 3.625 140.515 3.135C139.955 2.645 139.185 2.4 138.205 2.4C136.735 2.4 135.556 2.82 134.67 3.66C133.806 4.47667 133.188 5.66667 132.815 7.23C132.441 8.79333 132.255 10.7067 132.255 12.97C132.255 15.21 132.476 17.0767 132.92 18.57C133.386 20.0633 134.133 21.1833 135.16 21.93C136.21 22.6767 137.598 23.05 139.325 23.05C140.468 23.05 141.448 22.8867 142.265 22.56C143.081 22.21 143.77 21.7783 144.33 21.265C144.913 20.7517 145.403 20.2383 145.8 19.725C145.986 19.865 146.126 20.075 146.22 20.355C146.336 20.635 146.395 20.9267 146.395 21.23C146.395 21.72 146.255 22.2333 145.975 22.77C145.718 23.3067 145.286 23.8083 144.68 24.275C144.073 24.7417 143.256 25.1267 142.23 25.43C141.226 25.71 139.978 25.85 138.485 25.85ZM148.809 25.5V23.645H150.279C150.605 23.645 150.897 23.5983 151.154 23.505C151.434 23.4117 151.655 23.2133 151.819 22.91C151.982 22.6067 152.064 22.1517 152.064 21.545V4.5C152.064 3.87 151.982 3.40333 151.819 3.1C151.655 2.79666 151.434 2.59833 151.154 2.505C150.897 2.41167 150.605 2.365 150.279 2.365H148.809V0.509998H160.884V2.365H159.414C159.087 2.365 158.784 2.42333 158.504 2.54C158.224 2.63333 158.002 2.84333 157.839 3.17C157.675 3.47333 157.594 3.96333 157.594 4.64V12.795L163.019 6.88C163.532 6.34333 163.929 5.87667 164.209 5.48C164.489 5.06 164.687 4.68667 164.804 4.36C164.944 4.01 165.014 3.67167 165.014 3.345C165.014 3.08833 164.944 2.89 164.804 2.75C164.687 2.58667 164.489 2.48167 164.209 2.435C163.929 2.365 163.544 2.33 163.054 2.33V0.509998H172.539V2.33C171.909 2.33 171.314 2.45833 170.754 2.715C170.194 2.97167 169.645 3.33333 169.109 3.8C168.595 4.26667 168.059 4.80333 167.499 5.41L162.879 10.485L169.389 20.81C169.739 21.3467 170.065 21.8017 170.369 22.175C170.695 22.525 171.01 22.8167 171.314 23.05C171.64 23.26 171.967 23.4117 172.294 23.505C172.644 23.5983 173.005 23.645 173.379 23.645H173.519V25.5H171.629C170.299 25.5 169.202 25.4417 168.339 25.325C167.475 25.185 166.764 24.9867 166.204 24.73C165.667 24.45 165.224 24.1117 164.874 23.715C164.524 23.3183 164.185 22.84 163.859 22.28L159.134 14.23L157.594 15.455V21.37C157.594 22.0233 157.675 22.5133 157.839 22.84C158.002 23.1667 158.224 23.3883 158.504 23.505C158.784 23.5983 159.087 23.645 159.414 23.645H160.884V25.5H148.809ZM179.272 25.5V23.645H180.917C181.29 23.645 181.628 23.61 181.932 23.54C182.235 23.4467 182.48 23.2483 182.667 22.945C182.853 22.6417 182.947 22.1633 182.947 21.51V16.645L176.472 4.22C176.238 3.75333 176.017 3.39167 175.807 3.135C175.597 2.855 175.352 2.65667 175.072 2.54C174.815 2.42333 174.453 2.365 173.987 2.365H173.532V0.509998H185.257V2.365H184.662C183.962 2.365 183.437 2.51667 183.087 2.82C182.737 3.1 182.562 3.47333 182.562 3.94C182.562 4.24333 182.608 4.57 182.702 4.92C182.818 5.24667 182.947 5.56167 183.087 5.865L185.677 11.01C185.863 11.3833 186.027 11.7333 186.167 12.06C186.33 12.3867 186.47 12.7017 186.587 13.005C186.703 13.285 186.808 13.565 186.902 13.845C187.018 14.1017 187.123 14.37 187.217 14.65C187.473 14.0433 187.753 13.3783 188.057 12.655C188.383 11.9317 188.733 11.1733 189.107 10.38L191.137 6.18C191.393 5.66667 191.557 5.235 191.627 4.885C191.697 4.535 191.732 4.26667 191.732 4.08C191.732 3.47333 191.533 3.04167 191.137 2.785C190.763 2.505 190.192 2.365 189.422 2.365H188.617V0.509998H197.787V2.365H197.122C196.725 2.365 196.398 2.44667 196.142 2.61C195.885 2.75 195.628 3.01833 195.372 3.415C195.138 3.81167 194.835 4.37167 194.462 5.095L188.512 16.68V21.475C188.512 22.1517 188.593 22.6417 188.757 22.945C188.943 23.2483 189.188 23.4467 189.492 23.54C189.795 23.61 190.122 23.645 190.472 23.645H192.187V25.5H179.272ZM207.871 25.5V23.645H209.341C209.691 23.645 209.994 23.5983 210.251 23.505C210.531 23.3883 210.741 23.1667 210.881 22.84C211.044 22.5133 211.126 22.0233 211.126 21.37V4.5C211.126 3.87 211.044 3.40333 210.881 3.1C210.718 2.79666 210.496 2.59833 210.216 2.505C209.959 2.41167 209.668 2.365 209.341 2.365H207.871V0.509998H219.421C222.011 0.509998 224.228 0.964999 226.071 1.875C227.914 2.76167 229.326 4.10333 230.306 5.9C231.309 7.67333 231.811 9.89 231.811 12.55C231.811 15.0933 231.344 17.345 230.411 19.305C229.478 21.2417 228.089 22.7583 226.246 23.855C224.426 24.9517 222.151 25.5 219.421 25.5H207.871ZM218.616 23.33C220.226 23.33 221.568 22.8983 222.641 22.035C223.714 21.1717 224.519 19.935 225.056 18.325C225.616 16.6917 225.896 14.755 225.896 12.515C225.896 10.2983 225.616 8.46667 225.056 7.02C224.519 5.55 223.714 4.45333 222.641 3.73C221.568 3.00666 220.238 2.645 218.651 2.645H216.656V23.33H218.616ZM234.702 25.5V23.645H236.172C236.499 23.645 236.791 23.5983 237.047 23.505C237.327 23.4117 237.549 23.2133 237.712 22.91C237.876 22.6067 237.957 22.1517 237.957 21.545V4.64C237.957 3.96333 237.876 3.47333 237.712 3.17C237.572 2.84333 237.362 2.63333 237.082 2.54C236.826 2.42333 236.522 2.365 236.172 2.365H234.702V0.509998H254.127L254.267 6.95H251.817L251.642 5.305C251.596 4.72167 251.479 4.24333 251.292 3.87C251.129 3.47333 250.896 3.17 250.592 2.96C250.289 2.75 249.892 2.645 249.402 2.645H243.522V11.395H251.817V13.495H243.522V23.365H250.522C250.989 23.365 251.374 23.2483 251.677 23.015C251.981 22.7817 252.214 22.4667 252.377 22.07C252.564 21.6733 252.692 21.2183 252.762 20.705L253.042 19.06H255.457L255.212 25.5H234.702ZM257.568 25.5V23.645H259.038C259.365 23.645 259.657 23.5983 259.913 23.505C260.193 23.4117 260.415 23.2133 260.578 22.91C260.742 22.6067 260.823 22.1517 260.823 21.545V4.5C260.823 3.87 260.742 3.40333 260.578 3.1C260.415 2.79666 260.193 2.59833 259.913 2.505C259.657 2.41167 259.365 2.365 259.038 2.365H257.568V0.509998H268.838C271.055 0.509998 272.863 0.754999 274.263 1.245C275.687 1.735 276.737 2.47 277.413 3.45C278.09 4.40666 278.428 5.585 278.428 6.985C278.428 8.22167 278.195 9.27167 277.728 10.135C277.262 10.9983 276.667 11.71 275.943 12.27C275.22 12.83 274.462 13.2733 273.668 13.6L277.833 20.775C278.137 21.2883 278.428 21.7317 278.708 22.105C278.988 22.455 279.257 22.7467 279.513 22.98C279.793 23.2133 280.085 23.3883 280.388 23.505C280.692 23.5983 281.007 23.645 281.333 23.645H281.473V25.5H280.318C279.268 25.5 278.347 25.465 277.553 25.395C276.783 25.3017 276.107 25.15 275.523 24.94C274.963 24.7067 274.462 24.38 274.018 23.96C273.575 23.54 273.178 23.0033 272.828 22.35L268.663 14.65H266.353V21.545C266.353 22.1517 266.435 22.6067 266.598 22.91C266.762 23.2133 266.983 23.4117 267.263 23.505C267.543 23.5983 267.835 23.645 268.138 23.645H269.643V25.5H257.568ZM268.313 12.62C269.387 12.62 270.227 12.4333 270.833 12.06C271.463 11.6633 271.907 11.0917 272.163 10.345C272.42 9.575 272.548 8.61833 272.548 7.475C272.548 6.285 272.408 5.34 272.128 4.64C271.848 3.91667 271.393 3.39167 270.763 3.065C270.133 2.73833 269.293 2.575 268.243 2.575H266.353V12.62H268.313ZM282.314 25.5V23.645H283.749C284.099 23.645 284.403 23.5983 284.659 23.505C284.939 23.3883 285.161 23.1667 285.324 22.84C285.488 22.5133 285.569 22.0233 285.569 21.37V4.605C285.569 3.975 285.488 3.50833 285.324 3.205C285.161 2.87833 284.939 2.65667 284.659 2.54C284.379 2.42333 284.076 2.365 283.749 2.365H282.314V0.509998H292.534C295.871 0.509998 298.368 1.02333 300.024 2.05C301.704 3.07667 302.544 4.68667 302.544 6.88C302.544 7.90667 302.358 8.77 301.984 9.47C301.611 10.1467 301.098 10.7067 300.444 11.15C299.791 11.57 299.021 11.92 298.134 12.2V12.375C299.208 12.6317 300.153 13.04 300.969 13.6C301.786 14.16 302.428 14.86 302.894 15.7C303.361 16.5167 303.594 17.4967 303.594 18.64C303.594 20.9267 302.754 22.6417 301.074 23.785C299.394 24.9283 296.898 25.5 293.584 25.5H282.314ZM293.409 23.365C294.973 23.365 296.081 23.0033 296.734 22.28C297.388 21.5567 297.714 20.3083 297.714 18.535C297.714 17.3917 297.586 16.4467 297.329 15.7C297.073 14.9533 296.629 14.405 295.999 14.055C295.393 13.6817 294.553 13.495 293.479 13.495H291.099V23.365H293.409ZM292.429 11.36C293.526 11.36 294.378 11.2083 294.984 10.905C295.591 10.6017 296.023 10.1233 296.279 9.47C296.536 8.79333 296.664 7.93 296.664 6.88C296.664 5.29333 296.338 4.19667 295.684 3.59C295.054 2.96 293.946 2.645 292.359 2.645H291.099V11.36H292.429ZM309.189 25.5V23.645H310.834C311.207 23.645 311.545 23.61 311.849 23.54C312.152 23.4467 312.397 23.2483 312.584 22.945C312.77 22.6417 312.864 22.1633 312.864 21.51V16.645L306.389 4.22C306.155 3.75333 305.934 3.39167 305.724 3.135C305.514 2.855 305.269 2.65667 304.989 2.54C304.732 2.42333 304.37 2.365 303.904 2.365H303.449V0.509998H315.174V2.365H314.579C313.879 2.365 313.354 2.51667 313.004 2.82C312.654 3.1 312.479 3.47333 312.479 3.94C312.479 4.24333 312.525 4.57 312.619 4.92C312.735 5.24667 312.864 5.56167 313.004 5.865L315.594 11.01C315.78 11.3833 315.944 11.7333 316.084 12.06C316.247 12.3867 316.387 12.7017 316.504 13.005C316.62 13.285 316.725 13.565 316.819 13.845C316.935 14.1017 317.04 14.37 317.134 14.65C317.39 14.0433 317.67 13.3783 317.974 12.655C318.3 11.9317 318.65 11.1733 319.024 10.38L321.054 6.18C321.31 5.66667 321.474 5.235 321.544 4.885C321.614 4.535 321.649 4.26667 321.649 4.08C321.649 3.47333 321.45 3.04167 321.054 2.785C320.68 2.505 320.109 2.365 319.339 2.365H318.534V0.509998H327.704V2.365H327.039C326.642 2.365 326.315 2.44667 326.059 2.61C325.802 2.75 325.545 3.01833 325.289 3.415C325.055 3.81167 324.752 4.37167 324.379 5.095L318.429 16.68V21.475C318.429 22.1517 318.51 22.6417 318.674 22.945C318.86 23.2483 319.105 23.4467 319.409 23.54C319.712 23.61 320.039 23.645 320.389 23.645H322.104V25.5H309.189Z" fill="white"/>
</svg>
